<svg id="_0560_finance_app" data-name="0560_finance_app" xmlns="http://www.w3.org/2000/svg" viewBox="0 0 500 500" data-imageid="finance-app-1-48" imageName="Finance App 1" class="illustrations_image" style="width: 166px;"><defs><style>.cls-1_finance-app-1-48{fill:#68e1fd;}.cls-2_finance-app-1-48{fill:#093f68;}.cls-3_finance-app-1-48{fill:#fff;}.cls-4_finance-app-1-48{fill:#f56132;}.cls-5_finance-app-1-48{fill:#ffbc0e;}.cls-6_finance-app-1-48{fill:#70cc40;}.cls-7_finance-app-1-48{fill:#dfeaef;}.cls-8_finance-app-1-48{fill:#ffc9b0;}.cls-9_finance-app-1-48{fill:none;}</style></defs><g id="device_finance-app-1-48"><rect class="cls-1_finance-app-1-48 targetColor" x="148.52" y="83.85" width="189.45" height="316.38" rx="27.45" style="fill: rgb(104, 225, 253);"/><path class="cls-2_finance-app-1-48" d="M309.89,402.05H176.59a29.93,29.93,0,0,1-29.9-29.9V111.92A29.93,29.93,0,0,1,176.59,82h133.3a29.93,29.93,0,0,1,29.9,29.9V372.15A29.93,29.93,0,0,1,309.89,402.05ZM176.59,85.68a26.27,26.27,0,0,0-26.24,26.24V372.15a26.27,26.27,0,0,0,26.24,26.24h133.3a26.27,26.27,0,0,0,26.24-26.24V111.92a26.27,26.27,0,0,0-26.24-26.24Z"/><rect class="cls-3_finance-app-1-48" x="161.21" y="118.91" width="164.06" height="242.4"/><path class="cls-2_finance-app-1-48" d="M325.27,363.14H161.21a1.83,1.83,0,0,1-1.83-1.83V118.91a1.82,1.82,0,0,1,1.83-1.83H325.27a1.82,1.82,0,0,1,1.83,1.83v242.4A1.83,1.83,0,0,1,325.27,363.14ZM163,359.48h160.4V120.74H163Z"/><path class="cls-2_finance-app-1-48" d="M233.52,103h-8a1.83,1.83,0,1,1,0-3.66h8a1.83,1.83,0,0,1,0,3.66Z"/><path class="cls-2_finance-app-1-48" d="M261,103H241.3a1.83,1.83,0,0,1,0-3.66H261a1.83,1.83,0,0,1,0,3.66Z"/><circle class="cls-2_finance-app-1-48" cx="243.24" cy="381.23" r="4.45"/><rect class="cls-2_finance-app-1-48" x="161.21" y="118.91" width="164.06" height="30.78"/><path class="cls-2_finance-app-1-48" d="M325.27,151.52H161.21a1.83,1.83,0,0,1-1.83-1.83V118.91a1.82,1.82,0,0,1,1.83-1.83H325.27a1.82,1.82,0,0,1,1.83,1.83v30.78A1.83,1.83,0,0,1,325.27,151.52ZM163,147.86h160.4V120.74H163Z"/><path class="cls-2_finance-app-1-48" d="M305.42,333.28H181.07a1.83,1.83,0,0,1,0-3.66H305.42a1.83,1.83,0,0,1,0,3.66Z"/><rect class="cls-4_finance-app-1-48" x="193.64" y="289.87" width="22.67" height="41.25"/><path class="cls-2_finance-app-1-48" d="M216.31,333H193.64a1.83,1.83,0,0,1-1.83-1.83V289.87a1.83,1.83,0,0,1,1.83-1.83h22.67a1.83,1.83,0,0,1,1.83,1.83v41.26A1.83,1.83,0,0,1,216.31,333Zm-20.84-3.66h19V291.7h-19Z"/><rect class="cls-5_finance-app-1-48" x="231.91" y="270.79" width="22.67" height="60.34"/><path class="cls-2_finance-app-1-48" d="M254.58,333H231.91a1.82,1.82,0,0,1-1.83-1.83V270.79a1.82,1.82,0,0,1,1.83-1.83h22.67a1.83,1.83,0,0,1,1.83,1.83v60.34A1.83,1.83,0,0,1,254.58,333Zm-20.84-3.66h19V272.62h-19Z"/><rect class="cls-6_finance-app-1-48" x="270.17" y="243.49" width="22.67" height="87.63"/><path class="cls-2_finance-app-1-48" d="M292.85,333H270.17a1.83,1.83,0,0,1-1.83-1.83V243.49a1.83,1.83,0,0,1,1.83-1.83h22.68a1.83,1.83,0,0,1,1.83,1.83v87.64A1.83,1.83,0,0,1,292.85,333ZM272,329.3h19v-84H272Z"/><circle class="cls-3_finance-app-1-48" cx="217.65" cy="200.5" r="36.58"/><path class="cls-2_finance-app-1-48" d="M217.65,238.91a38.41,38.41,0,1,1,38.41-38.41A38.45,38.45,0,0,1,217.65,238.91Zm0-73.16A34.75,34.75,0,1,0,252.4,200.5,34.79,34.79,0,0,0,217.65,165.75Z"/><path class="cls-6_finance-app-1-48" d="M217.65,200.5h36.58A36.57,36.57,0,1,1,238,170.09Z"/><path class="cls-2_finance-app-1-48" d="M217.65,238.91A38.41,38.41,0,1,1,239,168.57a1.83,1.83,0,0,1,.51,2.54l-18.43,27.56h33.15a1.83,1.83,0,0,1,1.83,1.83A38.45,38.45,0,0,1,217.65,238.91Zm0-73.16a34.75,34.75,0,1,0,34.7,36.58h-34.7a1.83,1.83,0,0,1-1.52-2.85l19.29-28.85A34.62,34.62,0,0,0,217.65,165.75Z"/><path class="cls-2_finance-app-1-48" d="M303.39,171.82H270.17a1.83,1.83,0,1,1,0-3.66h33.22a1.83,1.83,0,1,1,0,3.66Z"/><path class="cls-2_finance-app-1-48" d="M303.39,187.08H277.8a1.83,1.83,0,1,1,0-3.66h25.59a1.83,1.83,0,1,1,0,3.66Z"/><path class="cls-2_finance-app-1-48" d="M303.39,202.33H270.17a1.83,1.83,0,0,1,0-3.66h33.22a1.83,1.83,0,1,1,0,3.66Z"/><path class="cls-7_finance-app-1-48" d="M198.79,272.62a1.83,1.83,0,0,1-.83-3.46l100.22-50.74a1.83,1.83,0,0,1,1.66,3.27L199.62,272.42A1.78,1.78,0,0,1,198.79,272.62Z"/><path class="cls-7_finance-app-1-48" d="M295.25,232a1.75,1.75,0,0,1-.83-.2,1.83,1.83,0,0,1-.8-2.46l4.86-9.56-11.87-1.13a1.82,1.82,0,0,1-1.65-2,1.8,1.8,0,0,1,2-1.65l14.55,1.38a1.83,1.83,0,0,1,1.46,2.65l-6.08,12A1.84,1.84,0,0,1,295.25,232Z"/></g><g id="speech-bubble_finance-app-1-48"><path class="cls-3_finance-app-1-48" d="M363.85,75.93H296.26a5.81,5.81,0,0,0-5.81,5.81v53.93a5.81,5.81,0,0,0,5.81,5.81h2.29v13.57l13.94-13.57h51.36a5.81,5.81,0,0,0,5.81-5.81V81.74A5.81,5.81,0,0,0,363.85,75.93Z"/><path class="cls-2_finance-app-1-48" d="M298.55,156.87a1.76,1.76,0,0,1-.71-.14,1.83,1.83,0,0,1-1.12-1.69V143.31h-.46a7.65,7.65,0,0,1-7.64-7.64V81.74a7.65,7.65,0,0,1,7.64-7.64h67.59a7.65,7.65,0,0,1,7.64,7.64v53.93a7.65,7.65,0,0,1-7.64,7.64H313.23l-13.4,13.05A1.82,1.82,0,0,1,298.55,156.87Zm-2.29-79.11a4,4,0,0,0-4,4v53.93a4,4,0,0,0,4,4h2.29a1.83,1.83,0,0,1,1.83,1.83v9.23l10.84-10.54a1.78,1.78,0,0,1,1.27-.52h51.36a4,4,0,0,0,4-4V81.74a4,4,0,0,0-4-4Z"/><path class="cls-2_finance-app-1-48" d="M327.8,129.32v-3.27c-1.19-.32-2.34-.57-3.45-1a10,10,0,0,1-5.31-4,9.86,9.86,0,0,1-1.54-5.53h6.37a5.05,5.05,0,0,0,3.91,4.72v-8.65c-1.28-.37-2.56-.72-3.82-1.12a8.79,8.79,0,0,1-3.7-2.11,7.26,7.26,0,0,1-2.06-4,10.18,10.18,0,0,1,.4-5.55,9.23,9.23,0,0,1,5.59-5.55,29.23,29.23,0,0,1,3.22-.83l.39-.08V88.09h6v.42c0,1.24,0,2.47,0,3.71,0,.3.1.4.39.46a12.59,12.59,0,0,1,5.56,2.59,9,9,0,0,1,3.16,5.54c.1.59.15,1.19.22,1.82H336.6a4.53,4.53,0,0,0-2.8-4.11v8.07l.69.16a22.88,22.88,0,0,1,5.09,1.63,7.37,7.37,0,0,1,4.4,6.14,9.62,9.62,0,0,1-1.68,7,9.81,9.81,0,0,1-4.81,3.56c-1.19.42-2.44.69-3.73,1v3.17Zm6-16.41v7.51a5.46,5.46,0,0,0,2.64-1.17c1.38-1.13,1.87-4-.15-5.2A22.86,22.86,0,0,0,333.78,112.91Zm-6-7.7V98a23.06,23.06,0,0,0-2.28,1.16c-1.65,1.11-1.91,4.17.2,5.24C326.35,104.68,327.05,104.91,327.78,105.21Z"/></g><g id="hand-2_finance-app-1-48"><path class="cls-8_finance-app-1-48" d="M324.59,402.56l5.22,21.51h86.35c-6.3-14.16-16-35.62-18-38.5-3-4.36-1.82-61.34-12.94-80.72-6-9.82-17.07-13.15-28-12.18-3.31.3-32.91,7.65-33.81,4q-4.61-18.56-10.9-36.63c-1.93-5.52-4-11.11-7.75-15.62-3.42-4.18-9.5-7.33-14.12-4.53s-4.64,9.56-4,15c3.67,31.77,13.26,63.17,23.84,93.32,0,0-15.94-10.3-23.84-13.07s-14.71,4.76-9.4,20.88S324.59,402.56,324.59,402.56Z"/><path class="cls-2_finance-app-1-48" d="M416.16,425.9H329.81a1.83,1.83,0,0,1-1.78-1.39L323,403.65c-5.21-3.81-42.32-31.36-47.48-47-3.11-9.45-2.52-17.2,1.62-21.26,2.61-2.56,6.3-3.26,10.13-1.92,5.46,1.92,14.42,7.18,19.78,10.48-9.14-26.45-18.56-57.23-22.21-88.79-.64-5.56-.83-13.33,4.88-16.8,5.46-3.3,12.42,0,16.49,4.93,3.87,4.71,6,10.34,8.05,16.19,4.15,11.88,7.79,24.08,10.83,36.29,3.28.95,19.37-2.38,25.55-3.66,3.64-.75,5.58-1.15,6.45-1.23,13.17-1.18,24,3.59,29.76,13,7.53,13.12,9.57,42.54,10.92,62,.59,8.48,1.2,17.25,2,18.63,2,2.89,10.95,22.68,18.11,38.78a1.82,1.82,0,0,1-1.67,2.57Zm-84.91-3.66h82.09c-9.25-20.72-15.29-33.66-16.65-35.64s-1.71-7.58-2.6-20.43c-1.33-19.14-3.33-48.06-10.42-60.4-5-8.2-14.58-12.32-26.29-11.27-.69.06-3.17.57-6,1.16-22.73,4.71-28.84,5-29.72,1.46-3-12.26-6.69-24.53-10.85-36.47-1.93-5.52-3.94-10.82-7.43-15.06-3-3.65-8.13-6.33-11.76-4.13-3,1.81-4,6-3.14,13.24,3.84,33.19,14.15,65.61,23.74,92.94a1.83,1.83,0,0,1-2.72,2.14c-.15-.1-15.84-10.22-23.44-12.88a5.87,5.87,0,0,0-6.35,1.07c-3.07,3-3.34,9.55-.72,17.51,5.07,15.37,46.28,45.3,46.7,45.6a1.81,1.81,0,0,1,.7,1.05Z"/></g><g id="hand-1_finance-app-1-48"><path class="cls-9_finance-app-1-48" d="M166.23,400.24l6-44.39v-.29l-6,44.66Z"/><path class="cls-9_finance-app-1-48" d="M163.25,421.88H84l0,.36h79.24l3-22,0,0Z"/><path class="cls-2_finance-app-1-48" d="M163.25,422.24H84l0-.36h0c1.49-26.52,5.31-86.54,10.83-115.47,3-15.55,30.7-35.65,51.85-48.94v-4C124.83,267,94.58,288.64,91.25,306.09,85.54,336,81.66,398.48,80.25,424a1.88,1.88,0,0,0,.5,1.36,1.82,1.82,0,0,0,1.33.57h82.77a1.82,1.82,0,0,0,1.81-1.58l3.12-23.06a30.12,30.12,0,0,1-3.55-1Z"/><path class="cls-8_finance-app-1-48" d="M166.18,400.22a29.55,29.55,0,0,1-19.49-27.78V257.83c-21.15,13.3-48.88,33.4-51.85,48.94-5.5,28.8-9.31,88.42-10.8,115.11h79.21Z"/><path class="cls-8_finance-app-1-48" d="M94.84,306.41C89.32,335.34,85.5,395.36,84,421.88h0c1.49-26.69,5.3-86.31,10.8-115.11,3-15.54,30.7-35.64,51.85-48.94v-.36C125.54,270.76,97.81,290.86,94.84,306.41Z"/><path class="cls-8_finance-app-1-48" d="M92.74,349.49S92.28,311.3,136,283.81c37.52-23.58,39.41-9.76,37.43-.31-2.44,11.67-30,33.55-30,33.55s17.27,17.77-4.26,45.83"/><path class="cls-2_finance-app-1-48" d="M139.17,364.71a1.78,1.78,0,0,1-1.11-.38,1.82,1.82,0,0,1-.34-2.56c20.24-26.39,5.05-42.76,4.39-43.44a1.85,1.85,0,0,1-.51-1.4,1.87,1.87,0,0,1,.69-1.31c7.52-6,27.47-23.46,29.36-32.49.58-2.76,1.14-7.68-1.57-9.56-2.54-1.77-10.21-2.59-33.09,11.79-22.1,13.89-32.46,30.57-37.25,42.12-5.2,12.52-5.17,21.9-5.17,22a1.83,1.83,0,0,1-1.81,1.85h0a1.83,1.83,0,0,1-1.83-1.81c0-1.6,0-39.53,44.13-67.25,19.07-12,31.22-15.81,37.13-11.7,3.34,2.33,4.4,6.93,3.06,13.32C173,294.6,151.8,312.58,146,317.33c3.71,5.11,13.25,22.4-5.37,46.67A1.81,1.81,0,0,1,139.17,364.71Z"/></g></svg>